Coordinates
version=1
nRows=15
nColumns=34
inDegrees=yes
inDegrees=no

Units are S.I. units (second, meters, Newtons, ...)
If the header above contains a line with 'inDegrees', this indicates whether rotational values are in degrees (yes) or radians (no).

endheader
time	pelvis_tilt	pelvis_list	pelvis_rotation	pelvis_tx	pelvis_ty	pelvis_tz	hip_flexion_r	hip_adduction_r	hip_rotation_r	knee_angle_r	ankle_angle_r	subtalar_angle_r	mtp_angle_r	hip_flexion_l	hip_adduction_l	hip_rotation_l	knee_angle_l	ankle_angle_l	subtalar_angle_l	mtp_angle_l	lumbar_extension	lumbar_bending	lumbar_rotation	arm_flex_r	arm_add_r	arm_rot_r	elbow_flex_r	pro_sup_r	arm_flex_l	arm_add_l	arm_rot_l	elbow_flex_l	pro_sup_l
7.900000 -0.140378 0.063801 0.024778 -0.000395 0.007209 -0.004859 1.874911 -0.038376 -0.184341 1.069014 -0.028324 -0.033080 0.000000 1.800468 -0.284753 -0.457460 1.283783 0.080521 -0.017946 0.000000 -0.916883 0.270995 0.151205 1.073491 -0.329975 0.219476 0.788253 1.439454 2.079344 0.213998 0.210879 1.163811 1.152537
7.916667 -0.136817 0.063030 0.024741 -0.000401 0.007179 -0.004938 1.885081 -0.052378 -0.193503 1.084203 -0.030537 -0.006617 0.000000 1.820841 -0.283149 -0.453789 1.309714 0.128209 0.008624 0.000000 -0.890218 0.288120 0.134475 0.982617 -0.321292 0.179878 0.828837 1.516678 2.014542 0.206180 0.206161 1.172101 1.168186
7.933333 -0.133076 0.067060 0.026346 -0.000447 0.007267 -0.005007 1.879947 -0.065432 -0.184713 1.087333 -0.032144 0.004228 0.000000 1.808350 -0.270003 -0.462677 1.307360 0.133168 0.009716 0.000000 -0.871623 0.298513 0.115230 0.923742 -0.325092 0.178739 0.821713 1.532148 1.968519 0.202356 0.216850 1.153101 1.173038
7.950000 -0.105392 0.069149 0.022541 -0.000696 0.007406 -0.004990 1.834230 -0.064217 -0.184716 1.039347 -0.061820 0.024967 0.000000 1.759373 -0.258144 -0.467627 1.278235 0.136558 0.007965 0.000000 -0.886535 0.302080 0.100783 0.864486 -0.324332 0.168199 0.846696 1.610532 1.947605 0.195918 0.228335 1.106289 1.200806
7.966667 -0.078586 0.072466 0.020830 -0.000834 0.007541 -0.004971 1.783105 -0.060988 -0.181970 0.986393 -0.094554 0.026955 0.000000 1.708752 -0.244102 -0.474655 1.235763 0.120454 -0.011532 0.000000 -0.899856 0.307427 0.074412 0.817052 -0.313191 0.173592 0.849541 1.620383 1.915406 0.177907 0.221815 1.096580 1.203940
7.983333 -0.034037 0.075486 0.018508 -0.001122 0.007568 -0.004873 1.713086 -0.050974 -0.177085 0.922908 -0.127724 0.025945 0.000000 1.646565 -0.235370 -0.477703 1.193273 0.076082 -0.033709 0.000000 -0.937178 0.299873 0.043970 0.785808 -0.293657 0.178954 0.854199 1.641495 1.920285 0.156996 0.250800 1.048931 1.213954
8.000000 0.004051 0.082029 0.009725 -0.001326 0.007765 -0.004874 1.645306 -0.040132 -0.173323 0.869650 -0.163039 -0.001399 0.000000 1.589851 -0.226824 -0.484490 1.143980 0.022502 -0.068039 0.000000 -0.967755 0.290541 0.017990 0.764486 -0.280305 0.173955 0.861862 1.660350 1.909507 0.135818 0.273742 1.010412 1.222908
8.016667 0.035879 0.083687 -0.002464 -0.001446 0.007870 -0.004843 1.590844 -0.023016 -0.167942 0.833442 -0.179481 -0.027408 0.000000 1.542800 -0.227166 -0.487978 1.109281 -0.013134 -0.096148 0.000000 -0.988423 0.281768 0.006591 0.722927 -0.275661 0.175794 0.859283 1.667121 1.872722 0.130800 0.276320 0.995404 1.225529
8.033333 0.073708 0.087070 -0.017092 -0.001721 0.007993 -0.004724 1.520235 -0.000266 -0.164530 0.774430 -0.205009 -0.035550 0.000000 1.478730 -0.230326 -0.499359 1.062814 -0.061797 -0.122047 0.000000 -1.012432 0.264541 -0.013868 0.671904 -0.259579 0.179020 0.871732 1.673426 1.836370 0.126887 0.278106 0.975609 1.228365
8.050000 0.109127 0.087417 -0.029609 -0.001740 0.008183 -0.004720 1.454507 0.017613 -0.163918 0.725929 -0.213078 -0.027559 0.000000 1.416895 -0.231867 -0.509977 1.020636 -0.067029 -0.133476 0.000000 -1.024116 0.254525 -0.015149 0.585739 -0.258411 0.142697 0.900802 1.686939 1.784194 0.166131 0.259853 0.923040 1.236834
8.066667 0.131415 0.082925 -0.052156 -0.001797 0.008223 -0.004711 1.410802 0.041756 -0.174662 0.679235 -0.235080 -0.004400 0.000000 1.387090 -0.252000 -0.514673 1.011809 -0.015991 -0.099187 0.000000 -1.013216 0.244898 -0.016823 0.507144 -0.252014 0.114686 0.902013 1.695258 1.717686 0.184775 0.248661 0.888212 1.244554
8.083333 0.159163 0.075480 -0.068712 -0.001942 0.008250 -0.004632 1.364469 0.062366 -0.175658 0.635360 -0.254919 0.020746 0.000000 1.361644 -0.270287 -0.514657 1.009972 0.008732 -0.092902 0.000000 -1.009982 0.233776 -0.034179 0.440348 -0.232720 0.092195 0.908014 1.699953 1.667731 0.183572 0.248834 0.852968 1.251815
8.100000 0.180922 0.070891 -0.081991 -0.001934 0.008428 -0.004604 1.319155 0.076508 -0.175809 0.610069 -0.262824 0.037334 0.000000 1.327811 -0.280871 -0.519027 1.002268 0.027752 -0.074943 0.000000 -1.002876 0.228389 -0.033812 0.369906 -0.225272 0.035591 0.904099 1.707259 1.602753 0.199294 0.251359 0.824069 1.269820
8.116667 0.200293 0.063661 -0.090981 -0.002014 0.008385 -0.004630 1.289004 0.086127 -0.182117 0.587245 -0.263931 0.058166 0.000000 1.305324 -0.285988 -0.516320 0.997786 0.064285 -0.033358 0.000000 -0.991417 0.225948 -0.062126 0.308413 -0.216956 0.025950 0.912317 1.714080 1.536094 0.168782 0.282962 0.819086 1.285566
8.133333 0.224634 0.065374 -0.098478 -0.002010 0.008455 -0.004725 1.253036 0.087730 -0.173095 0.569338 -0.275443 0.069774 0.000000 1.275155 -0.282870 -0.527268 0.997156 0.058877 -0.051198 0.000000 -0.980979 0.225666 -0.103260 0.245846 -0.212427 0.019576 0.913516 1.717058 1.458906 0.136479 0.311157 0.820949 1.296006
